<svg width="33" height="33" viewBox="0 0 33 33" fill="none" xmlns="http://www.w3.org/2000/svg">
<g clip-path="url(#clip0_107_2199)">
<rect x="0.565918" width="32.1509" height="32.1509" fill="#5662F6"/>
<path d="M23.6057 9.5341C22.329 8.95151 20.9519 8.52964 19.5145 8.28857C19.4843 8.28857 19.4642 8.29862 19.4441 8.31871C19.2632 8.63009 19.0722 9.03187 18.9314 9.34325C17.3834 9.11223 15.8455 9.11223 14.3376 9.34325C14.207 9.02183 14.0059 8.63009 13.825 8.31871C13.8149 8.29862 13.7848 8.28857 13.7647 8.28857C12.3272 8.52964 10.9501 8.96156 9.67349 9.5341C9.66344 9.5341 9.65338 9.54414 9.64333 9.55419C7.03985 13.3812 6.32615 17.1177 6.67797 20.8041C6.67797 20.8242 6.68802 20.8443 6.70813 20.8543C8.41698 22.0998 10.0856 22.8532 11.7141 23.3554C11.7442 23.3654 11.7643 23.3554 11.7844 23.3353C12.1664 22.813 12.5182 22.2706 12.8097 21.688C12.8298 21.6579 12.8097 21.6177 12.7796 21.5976C12.2368 21.3967 11.7141 21.1456 11.2115 20.8643C11.1712 20.8443 11.1712 20.784 11.2014 20.7639C11.3019 20.6835 11.4125 20.6032 11.513 20.5228C11.5331 20.5128 11.5532 20.5027 11.5733 20.5128C14.8604 21.9893 18.4288 21.9893 21.6757 20.5128C21.6958 20.5027 21.7259 20.5027 21.746 20.5228C21.8465 20.6032 21.9471 20.6835 22.0576 20.7639C22.0978 20.794 22.0878 20.8443 22.0476 20.8643C21.545 21.1556 21.0223 21.3967 20.4795 21.5976C20.4393 21.6076 20.4292 21.6478 20.4493 21.688C20.7509 22.2605 21.0926 22.813 21.4746 23.3253C21.4947 23.3453 21.5148 23.3554 21.545 23.3453C23.1835 22.8431 24.8521 22.0898 26.571 20.8543C26.5811 20.8443 26.5911 20.8242 26.6012 20.8041C27.0234 16.5351 25.8975 12.8388 23.6258 9.55419C23.6258 9.55419 23.6157 9.54414 23.6057 9.5341ZM13.3023 18.5641C12.3071 18.5641 11.4929 17.6702 11.4929 16.5753C11.4929 15.4805 12.2971 14.5865 13.3023 14.5865C14.3175 14.5865 15.1217 15.4905 15.1117 16.5753C15.1117 17.6702 14.3075 18.5641 13.3023 18.5641ZM19.9869 18.5641C18.9918 18.5641 18.1775 17.6702 18.1775 16.5753C18.1775 15.4805 18.9817 14.5865 19.9869 14.5865C21.0022 14.5865 21.8063 15.4905 21.7963 16.5753C21.7963 17.6702 21.0022 18.5641 19.9869 18.5641Z" fill="white"/>
</g>
<defs>
<clipPath id="clip0_107_2199">
<rect x="0.565918" width="32.1509" height="32.1509" rx="16.0755" fill="white"/>
</clipPath>
</defs>
</svg>
