<svg width="33" height="33" viewBox="0 0 33 33" fill="none" xmlns="http://www.w3.org/2000/svg">
<g clip-path="url(#clip0_107_2196)">
<path d="M32.4341 16.0755C32.4341 7.19723 25.2369 0 16.3587 0C7.48043 0 0.283203 7.19723 0.283203 16.0755C0.283203 24.0991 6.16174 30.7497 13.8469 31.9557V20.7223H9.76522V16.0755H13.8469V12.5338C13.8469 8.50493 16.2469 6.27948 19.9188 6.27948C21.6771 6.27948 23.5173 6.59345 23.5173 6.59345V10.5495H21.4903C19.4934 10.5495 18.8705 11.7888 18.8705 13.0613V16.0755H23.3289L22.6162 20.7223H18.8705V31.9557C26.5556 30.7497 32.4341 24.0991 32.4341 16.0755Z" fill="#1877F2"/>
<path d="M22.6161 20.7221L23.3288 16.0753H18.8704V13.0611C18.8704 11.7899 19.4933 10.5493 21.4902 10.5493H23.5172V6.59327C23.5172 6.59327 21.6776 6.2793 19.9187 6.2793C16.2468 6.2793 13.8468 8.50475 13.8468 12.5337V16.0753H9.76514V20.7221H13.8468V31.9555C15.5112 32.2159 17.206 32.2159 18.8704 31.9555V20.7221H22.6161Z" fill="white"/>
</g>
<defs>
<clipPath id="clip0_107_2196">
<rect width="32.1509" height="32.1509" fill="white" transform="translate(0.283203)"/>
</clipPath>
</defs>
</svg>
