<svg width="903" height="827" viewBox="0 0 903 827" fill="none" xmlns="http://www.w3.org/2000/svg">
<g clip-path="url(#clip0_178_6)">
<path d="M578.159 659.811L586.83 679.255C579.782 678.133 573.226 684.153 573.079 691.884C572.932 699.615 579.219 707.658 586.268 708.757C584.921 714.759 579.107 717.405 574.061 719.831C569.015 722.257 563.576 726.281 563.951 732.676C564.252 737.812 568.499 742.346 573.009 744.169C577.518 745.992 582.25 745.711 586.817 745.405C579.896 752.645 579.222 766.253 585.3 776.016C591.378 785.779 603.516 790.585 612.605 786.827C606.183 794.816 607.579 809.445 615.548 817.69C623.583 826 635.226 826.805 645.406 825.929C671.327 823.738 696.027 813.949 716.412 797.789C724.194 791.606 731.463 784.334 735.902 774.848C740.341 765.362 741.649 753.352 737.514 742.558C738.629 756.08 752.164 766.76 764.34 767.358C776.516 767.956 787.147 761.097 796.181 753.277C808.195 742.876 819.318 728.298 817.669 710.31C816.853 701.405 812.963 692.841 809.148 684.545L801.753 668.462C798.767 661.969 795.714 655.367 791.22 649.918C786.726 644.47 780.489 640.252 774.247 640.292C775.674 633.772 777.108 627.009 775.912 620.081C774.716 613.153 770.136 605.98 763.907 604.358C755.98 602.293 749.263 609.609 741.292 608.919C733.621 608.255 727.282 600.557 719.833 597.507C716.766 596.18 713.379 595.777 710.086 596.347C706.794 596.916 703.739 598.433 701.296 600.713C696.574 605.323 694.605 613.111 696.3 620.48C697.784 626.936 701.734 632.629 704.132 638.855C706.53 645.081 706.902 653.086 702.297 656.486C696.74 660.589 688.283 655.006 683.941 648.251C679.6 641.497 677.108 633.318 671.618 627.637C665.138 620.933 654.996 619.362 648.325 624.029C641.654 628.696 639.103 639.148 642.466 648.033C645.216 655.297 651.515 662.646 649.33 669.487C647.021 676.717 636.918 675.801 630.823 670.692C624.729 665.582 620.682 657.886 614.662 652.662C608.548 647.356 600.564 645.031 593.555 646.516C589.999 647.341 586.709 649.048 583.987 651.48C581.265 653.912 579.2 656.99 577.982 660.431" fill="#E6E6E6"/>
<path d="M718.556 605.17L700.563 613.529C697.859 614.865 694.791 615.279 691.829 614.707C689.217 614.089 687.452 612.492 686.988 610.324L682.802 590.769C682.011 587.081 685.066 582.716 690.065 580.393L700.002 575.777C705.001 573.454 710.307 573.934 712.616 576.917L724.861 592.728C726.219 594.481 726.301 596.86 725.088 599.254C723.615 601.887 721.321 603.964 718.556 605.17Z" fill="#3F3D56"/>
<path d="M585.043 335.344C574.108 340.435 573.927 363.239 577.356 370.627L583.57 384.002L623.18 365.599L616.966 352.224C613.53 344.839 595.986 330.27 585.043 335.344Z" fill="#3F3D56"/>
<path d="M478.602 527.36C477.905 527.36 477.219 527.191 476.601 526.869C475.982 526.547 475.451 526.081 475.052 525.51C474.652 524.939 474.397 524.28 474.306 523.589C474.216 522.898 474.293 522.195 474.533 521.54C474.726 521.005 475.024 520.514 475.409 520.095C475.795 519.676 476.259 519.338 476.776 519.1L681.329 424.062C681.845 423.822 682.403 423.686 682.971 423.662C683.539 423.638 684.107 423.726 684.641 423.921C685.175 424.116 685.665 424.415 686.084 424.799C686.503 425.184 686.842 425.648 687.081 426.163C687.564 427.205 687.613 428.396 687.219 429.474C686.825 430.552 686.019 431.43 684.979 431.915L480.425 526.953C479.854 527.22 479.232 527.359 478.602 527.36Z" fill="#3F3D56"/>
<path d="M638.609 374.128L580.138 401.294L671.859 598.708L730.33 571.541L638.609 374.128Z" fill="#E6E6E6"/>
<path d="M419.114 125.617C408.179 130.709 407.999 153.512 411.428 160.901L417.642 174.276L457.251 155.873L451.037 142.498C447.601 135.113 430.057 120.544 419.114 125.617Z" fill="#3F3D56"/>
<path d="M664.128 627.864L646.136 636.224C643.431 637.559 640.363 637.973 637.402 637.401C634.79 636.783 633.025 635.186 632.561 633.018L628.374 613.464C627.584 609.775 630.639 605.411 635.638 603.088L645.574 598.471C650.574 596.148 655.879 596.628 658.189 599.611L670.433 615.422C671.791 617.175 671.873 619.554 670.661 621.949C669.188 624.581 666.893 626.658 664.128 627.864Z" fill="#3F3D56"/>
<path d="M608.81 655.31L590.817 663.669C588.113 665.005 585.045 665.419 582.083 664.847C579.471 664.229 577.706 662.632 577.242 660.464L573.056 640.909C572.265 637.221 575.32 632.856 580.319 630.534L590.256 625.917C595.255 623.594 600.561 624.074 602.87 627.057L615.115 642.868C616.473 644.621 616.555 647 615.342 649.394C613.869 652.027 611.575 654.104 608.81 655.31Z" fill="#3F3D56"/>
<path d="M488.282 197.982L429.811 225.148L615.214 624.197L673.685 597.03L488.282 197.982Z" fill="#E6E6E6"/>
<path d="M548.951 403.691L542.39 389.254L546.167 387.512L552.708 401.903L647.423 611.909L643.65 613.662" fill="#3F3D56"/>
<path d="M622.951 391.691L616.39 377.254L620.167 375.512L626.708 389.903L721.423 599.909L717.65 601.662" fill="#3F3D56"/>
<path d="M515.88 229.917L436.655 266.726C431.611 258.879 416.405 218.666 419.82 206.735L417.257 195.357L471.96 169.941L479.283 178.949C490.152 182.284 511.311 220.055 515.88 229.917Z" fill="#E6E6E6"/>
<path d="M474.246 170.428L417.795 196.656C415.711 197.624 413.492 197.268 412.838 195.861C412.745 195.658 412.686 195.441 412.666 195.218L409.745 164.05C409.62 162.716 410.761 161.203 412.506 160.393L449.943 142.999C451.687 142.189 453.579 142.292 454.519 143.248L476.454 165.582C477.576 166.724 476.967 168.679 475.094 169.949C474.824 170.131 474.541 170.291 474.246 170.428Z" fill="#E6E6E6"/>
<path d="M518.522 414.617C517.911 414.619 517.302 414.547 516.708 414.404C515.871 414.23 515.084 413.867 514.409 413.343C513.734 412.818 513.187 412.146 512.812 411.378L478.299 337.095C476.871 334.02 478.788 330.088 482.573 328.329L533.109 304.849C536.895 303.089 541.137 304.161 542.566 307.236L577.079 381.519C577.424 382.302 577.585 383.153 577.55 384.007C577.515 384.861 577.285 385.696 576.878 386.448C575.992 388.15 574.556 389.503 572.804 390.286L522.268 413.765C521.096 414.318 519.818 414.609 518.522 414.617Z" fill="#3F3D56"/>
<path d="M525.434 425.861L466.963 453.028L558.684 650.441L617.155 623.275L525.434 425.861Z" fill="#E6E6E6"/>
<path d="M453.398 173.685L436.251 181.651C432.942 183.189 428.478 180.627 426.301 175.942C424.124 171.256 425.045 166.193 428.354 164.655L445.501 156.689C448.81 155.151 453.274 157.713 455.451 162.398C457.628 167.084 456.707 172.147 453.398 173.685Z" fill="#3F3D56"/>
<path d="M473.009 386.547C462.073 391.638 461.893 414.442 465.322 421.831L471.536 435.205L511.145 416.802L504.932 403.428C501.496 396.042 483.952 381.473 473.009 386.547Z" fill="#3F3D56"/>
<path d="M291.361 341.028C287.499 343.601 283.546 337.477 287.482 335.018C291.344 332.445 295.297 338.569 291.361 341.028Z" fill="#E6E6E6"/>
<path d="M693.361 253.028C689.499 255.601 685.546 249.477 689.482 247.018C693.344 244.445 697.297 250.569 693.361 253.028Z" fill="#E6E6E6"/>
<path d="M419.361 323.028C415.499 325.601 411.546 319.477 415.482 317.018C419.344 314.445 423.297 320.569 419.361 323.028Z" fill="#E6E6E6"/>
<path d="M291.361 563.028C287.499 565.601 283.546 559.477 287.482 557.018C291.344 554.445 295.297 560.569 291.361 563.028Z" fill="#E6E6E6"/>
<path d="M488.361 62.0281C484.499 64.6013 480.546 58.4769 484.482 56.0179C488.344 53.4449 492.297 59.5693 488.361 62.0281Z" fill="#E6E6E6"/>
<path d="M298.361 180.028C294.499 182.601 290.546 176.477 294.482 174.018C298.344 171.445 302.297 177.569 298.361 180.028Z" fill="#E6E6E6"/>
<path d="M571.639 146.2L569.182 145.661L569.72 143.203L568.082 142.844L567.543 145.302L565.086 144.764L564.727 146.402L567.184 146.941L566.646 149.398L568.284 149.757L568.823 147.299L571.28 147.838L571.639 146.2Z" fill="#E6E6E6"/>
<path d="M171.542 350.978L169.085 350.439L169.623 347.982L167.985 347.623L167.446 350.08L164.988 349.542L164.629 351.18L167.087 351.719L166.549 354.177L168.187 354.535L168.726 352.078L171.183 352.616L171.542 350.978Z" fill="#E6E6E6"/>
<path d="M675.429 455.436C673.384 456.383 671.047 456.481 668.93 455.707C666.814 454.933 665.091 453.352 664.139 451.309L654.026 429.544C653.08 427.5 652.983 425.163 653.758 423.048C654.532 420.933 656.115 419.212 658.158 418.263C660.201 417.314 662.537 417.215 664.653 417.987C666.769 418.759 668.492 420.339 669.443 422.381L679.556 444.146C680.503 446.191 680.601 448.528 679.827 450.644C679.053 452.761 677.471 454.484 675.429 455.436Z" fill="#3F3D56"/>
<path d="M503.429 535.436C501.384 536.383 499.047 536.481 496.93 535.707C494.814 534.933 493.091 533.352 492.139 531.309L482.026 509.544C481.08 507.5 480.983 505.164 481.758 503.048C482.532 500.933 484.115 499.212 486.158 498.263C488.201 497.314 490.537 497.214 492.653 497.987C494.769 498.759 496.492 500.339 497.443 502.381L507.556 524.146C508.503 526.191 508.601 528.528 507.827 530.644C507.053 532.761 505.471 534.484 503.429 535.436Z" fill="#3F3D56"/>
<path d="M659.851 407.881L592.046 439.385C587.729 432.669 574.715 398.252 577.637 388.041L579.071 376.618L619.557 356.755L628.529 364.26C641.169 359.986 659.749 391.308 659.851 407.881Z" fill="#E6E6E6"/>
<path d="M628.371 405.697L611.224 413.664C607.915 415.201 602.881 411.411 600.003 405.217C597.124 399.022 597.475 392.73 600.784 391.193L617.931 383.226C621.24 381.689 626.274 385.479 629.152 391.673C632.03 397.868 631.68 404.16 628.371 405.697Z" fill="#3F3D56"/>
<path d="M482.951 446.691L476.39 432.254L480.167 430.512L486.708 444.903L581.423 654.909L577.65 656.662" fill="#3F3D56"/>
<path d="M547.817 459.085L480.011 490.588C470.008 485.423 454.72 451.627 465.602 439.244L467.037 427.821L507.523 407.958L516.494 415.463C525.796 418.317 543.906 450.644 547.817 459.085Z" fill="#E6E6E6"/>
<path d="M514.941 453.897L497.794 461.863C494.485 463.401 489.763 460.285 487.27 454.918C484.776 449.551 485.44 443.933 488.749 442.396L505.896 434.429C509.205 432.892 513.926 436.008 516.42 441.375C518.913 446.741 518.25 452.359 514.941 453.897Z" fill="#3F3D56"/>
<path d="M171.291 307.845C228.176 307.845 274.291 261.73 274.291 204.845C274.291 147.959 228.176 101.845 171.291 101.845C114.406 101.845 68.291 147.959 68.291 204.845C68.291 261.73 114.406 307.845 171.291 307.845Z" fill="#FF6584"/>
<path opacity="0.3" d="M593.606 312.124L656.199 129.315L587.468 309.936C587.128 310.364 586.895 310.868 586.788 311.405C586.682 311.941 586.705 312.496 586.856 313.022C587.006 313.548 587.28 314.03 587.655 314.429C588.029 314.828 588.493 315.132 589.009 315.316C589.524 315.499 590.076 315.558 590.618 315.485C591.16 315.413 591.678 315.213 592.127 314.901C592.577 314.589 592.945 314.174 593.202 313.691C593.459 313.208 593.598 312.671 593.606 312.124Z" fill="#F0F0F0"/>
<path d="M783.425 385.839C789.336 385.839 794.127 381.047 794.127 375.136C794.127 369.226 789.336 364.434 783.425 364.434C777.514 364.434 772.723 369.226 772.723 375.136C772.723 381.047 777.514 385.839 783.425 385.839Z" fill="#FF6584"/>
<path d="M851.425 675.839C857.336 675.839 862.127 671.047 862.127 665.136C862.127 659.226 857.336 654.434 851.425 654.434C845.514 654.434 840.723 659.226 840.723 665.136C840.723 671.047 845.514 675.839 851.425 675.839Z" fill="#F2F2F2"/>
<path d="M486.426 741.002C497.95 741.002 507.292 731.66 507.292 720.136C507.292 708.612 497.95 699.27 486.426 699.27C474.902 699.27 465.56 708.612 465.56 720.136C465.56 731.66 474.902 741.002 486.426 741.002Z" fill="#F2F2F2"/>
<path d="M327.425 464.839C333.336 464.839 338.127 460.047 338.127 454.136C338.127 448.226 333.336 443.434 327.425 443.434C321.514 443.434 316.723 448.226 316.723 454.136C316.723 460.047 321.514 464.839 327.425 464.839Z" fill="#3F3D56"/>
<path d="M687.226 478.768L733.402 490.721L761.723 546.349L713.843 548.227L687.226 478.768Z" fill="#E6E6E6"/>
<path d="M580.645 398.574L606.059 424.002L670.606 563.557L658.721 573.824L580.645 398.574Z" fill="#CCCCCC"/>
<path d="M525.386 421.624L527.38 457.52L588.304 598.694L603.88 596.688L525.386 421.624Z" fill="#CCCCCC"/>
<path d="M523.723 566.637L498.854 607.339L517.187 667.008L552.9 635.061L523.723 566.637Z" fill="#E6E6E6"/>
</g>
<defs>
<clipPath id="clip0_178_6">
<rect width="902.419" height="826.207" fill="white"/>
</clipPath>
</defs>
</svg>
