<svg width="33" height="33" viewBox="0 0 33 33" fill="none" xmlns="http://www.w3.org/2000/svg">
<g clip-path="url(#clip0_107_2202)">
<path d="M16.9246 32.1509C25.8028 32.1509 33.0001 24.9537 33.0001 16.0755C33.0001 7.19723 25.8028 0 16.9246 0C8.04636 0 0.849121 7.19723 0.849121 16.0755C0.849121 24.9537 8.04636 32.1509 16.9246 32.1509Z" fill="url(#paint0_linear_107_2202)"/>
<path fill-rule="evenodd" clip-rule="evenodd" d="M8.12593 15.9053C12.8123 13.8636 15.9372 12.5175 17.5008 11.8672C21.9651 10.0103 22.8928 9.68777 23.4974 9.67712C23.6304 9.67477 23.9277 9.70773 24.1203 9.86401C24.2829 9.99598 24.3277 10.1742 24.3491 10.2994C24.3705 10.4245 24.3972 10.7095 24.376 10.9322C24.1341 13.4741 23.0873 19.6426 22.5547 22.4896C22.3294 23.6943 21.8857 24.0982 21.4561 24.1377C20.5226 24.2236 19.8137 23.5208 18.9095 22.9281C17.4947 22.0006 16.6954 21.4233 15.322 20.5183C13.7349 19.4724 14.7637 18.8975 15.6682 17.9581C15.905 17.7122 20.0181 13.971 20.0977 13.6316C20.1077 13.5891 20.1169 13.4309 20.0229 13.3474C19.9289 13.2638 19.7902 13.2924 19.6901 13.3151C19.5482 13.3473 17.288 14.8412 12.9094 17.7969C12.2678 18.2375 11.6867 18.4521 11.1661 18.4409C10.5921 18.4285 9.48798 18.1163 8.66719 17.8495C7.66046 17.5223 6.86034 17.3493 6.93001 16.7935C6.9663 16.504 7.36494 16.208 8.12593 15.9053Z" fill="white"/>
</g>
<defs>
<linearGradient id="paint0_linear_107_2202" x1="16.9246" y1="0" x2="16.9246" y2="31.9125" gradientUnits="userSpaceOnUse">
<stop stop-color="#2AABEE"/>
<stop offset="1" stop-color="#229ED9"/>
</linearGradient>
<clipPath id="clip0_107_2202">
<rect width="32.1509" height="32.1509" fill="white" transform="translate(0.849121)"/>
</clipPath>
</defs>
</svg>
