<svg width="33" height="33" viewBox="0 0 33 33" fill="none" xmlns="http://www.w3.org/2000/svg">
<g clip-path="url(#clip0_107_2193)">
<rect width="32.1509" height="32.1509" rx="16.0755" fill="#1DA1F2"/>
<path d="M13.1945 24.6163C20.5877 24.6163 24.6315 18.6244 24.6315 13.4282C24.6315 13.258 24.6315 13.0886 24.6197 12.9199C25.4064 12.3633 26.0855 11.674 26.6252 10.8845C25.8916 11.2027 25.1134 11.4112 24.3165 11.5032C25.1556 11.0118 25.7837 10.2389 26.0837 9.32825C25.2946 9.78631 24.4314 10.1091 23.5312 10.2827C22.9252 9.65229 22.1236 9.23485 21.2506 9.09497C20.3776 8.9551 19.4818 9.10058 18.7018 9.50892C17.9219 9.91726 17.3012 10.5657 16.9359 11.3539C16.5706 12.142 16.4811 13.026 16.6811 13.869C15.083 13.7906 13.5196 13.3843 12.0924 12.6765C10.6652 11.9687 9.40609 10.9753 8.39681 9.76062C7.88278 10.6263 7.72535 11.651 7.95656 12.6262C8.18776 13.6014 8.79023 14.4538 9.64129 15.0097C9.00157 14.9914 8.37578 14.8226 7.81688 14.5175V14.5674C7.81714 15.4752 8.1384 16.3551 8.72617 17.0576C9.31395 17.7602 10.1321 18.2422 11.0417 18.422C10.4499 18.5799 9.82904 18.603 9.22672 18.4894C9.48368 19.2707 9.98378 19.9539 10.6571 20.4435C11.3304 20.9331 12.1433 21.2046 12.9821 21.2202C12.1487 21.861 11.1943 22.3348 10.1735 22.6145C9.15276 22.8941 8.08563 22.9742 7.0332 22.85C8.87145 24.004 11.0103 24.6161 13.1945 24.6133" fill="white"/>
</g>
<defs>
<clipPath id="clip0_107_2193">
<rect width="32.1509" height="32.1509" fill="white"/>
</clipPath>
</defs>
</svg>
